<?xml version="1.0" encoding="UTF-8" standalone="no"?>
<svg
   xmlns:dc="http://purl.org/dc/elements/1.1/"
   xmlns:cc="http://creativecommons.org/ns#"
   xmlns:rdf="http://www.w3.org/1999/02/22-rdf-syntax-ns#"
   xmlns:svg="http://www.w3.org/2000/svg"
   xmlns="http://www.w3.org/2000/svg"
   xmlns:sodipodi="http://sodipodi.sourceforge.net/DTD/sodipodi-0.dtd"
   xmlns:inkscape="http://www.inkscape.org/namespaces/inkscape"
   version="1.1"
   x="0px"
   y="0px"
   viewBox="0 0 100 125"
   enable-background="new 0 0 100 100"
   xml:space="preserve"
   id="svg2"
   inkscape:version="0.91 r13725"
   sodipodi:docname="noun_99575_cc.svg"><metadata
     id="metadata14"><rdf:RDF><cc:Work
         rdf:about=""><dc:format>image/svg+xml</dc:format><dc:type
           rdf:resource="http://purl.org/dc/dcmitype/StillImage" /><dc:title /></cc:Work></rdf:RDF></metadata><defs
     id="defs12" /><sodipodi:namedview
     pagecolor="#ffffff"
     bordercolor="#666666"
     borderopacity="1"
     objecttolerance="10"
     gridtolerance="10"
     guidetolerance="10"
     inkscape:pageopacity="0"
     inkscape:pageshadow="2"
     inkscape:window-width="1855"
     inkscape:window-height="1056"
     id="namedview10"
     showgrid="false"
     inkscape:zoom="1.888"
     inkscape:cx="-145.97458"
     inkscape:cy="62.5"
     inkscape:window-x="65"
     inkscape:window-y="24"
     inkscape:window-maximized="1"
     inkscape:current-layer="layer1" /><g
     inkscape:groupmode="layer"
     id="layer1"
     inkscape:label="Layer 1"
     style="display:inline"><rect
       style="opacity:1;fill:#d5273a;fill-opacity:1;stroke:none;stroke-width:57.99300003;stroke-miterlimit:4;stroke-dasharray:none;stroke-opacity:0.45107398"
       id="rect4147"
       width="68.855934"
       height="72.563576"
       x="14.830508"
       y="16.419489" /></g><path
     d="m 30.785,47.802152 c -0.124,-0.855942 -0.19,-1.730014 -0.19,-2.618399 0,-10.447829 8.876,-18.918501 19.826,-18.918501 10.949,0 19.826,8.470672 19.826,18.918501 0,1.115491 -0.102,2.208081 -0.296,3.27109 -0.297,0.521008 -0.614,0.854033 -0.945,0.854033 -1.041,0 -1.938,-3.266319 -2.532,-5.426688 -0.925,-3.364604 -1.799,-6.543134 -4.049,-6.543134 -2.25,0 -3.125,3.17853 -4.05,6.543134 -0.594,2.160369 -1.491,5.426688 -2.532,5.426688 -1.041,0 -1.938,-3.266319 -2.532,-5.426688 -0.925,-3.364604 -1.799,-6.543134 -4.049,-6.543134 -2.25,0 -3.124,3.17853 -4.049,6.543134 -0.594,2.161324 -1.492,5.426688 -2.532,5.426688 -1.04,0 -1.938,-3.266319 -2.533,-5.426688 -0.925,-3.364604 -1.799,-6.543134 -4.049,-6.543134 -2.25,0 -3.124,3.17853 -4.049,6.543134 -0.336,1.215685 -0.767,2.783479 -1.265,3.919964 z m 38.22,3.001997 c -2.25,0 -3.124,-3.177575 -4.05,-6.542179 -0.594,-2.161324 -1.491,-5.426688 -2.531,-5.426688 -1.041,0 -1.939,3.265364 -2.533,5.426688 -0.925,3.364604 -1.799,6.542179 -4.049,6.542179 -2.25,0 -3.124,-3.177575 -4.049,-6.542179 -0.594,-2.161324 -1.492,-5.426688 -2.532,-5.426688 -1.041,0 -1.938,3.265364 -2.532,5.426688 -0.925,3.364604 -1.799,6.542179 -4.049,6.542179 -2.25,0 -3.124,-3.177575 -4.049,-6.542179 -0.594,-2.161324 -1.492,-5.426688 -2.533,-5.426688 -1.041,0 -1.938,3.265364 -2.533,5.426688 -0.641,2.330222 -1.257,4.570747 -2.324,5.728224 2.229,8.12047 9.97,14.113014 19.179,14.113014 8.91,0 16.447,-5.609899 18.946,-13.329594 -0.117,0.01908 -0.236,0.03054 -0.361,0.03054 z m 7.23,24.119992 -3.497,3.336931 -0.539,-0.515283 3.495,-3.335977 c -1.725,-1.385537 -4.302,-1.304428 -5.925,0.245237 -1.714,1.635544 -1.714,4.287341 0,5.922886 1.714,1.637453 4.493,1.637453 6.208,0 1.624,-1.547756 1.709,-4.007753 0.258,-5.653794 z m -19.195,-0.516237 3.497,3.336931 -0.54,0.514328 -3.496,-3.335022 c -1.452,1.646041 -1.367,4.105083 0.257,5.653794 1.714,1.635544 4.493,1.635544 6.207,0 1.716,-1.635545 1.716,-4.287342 0,-5.923841 -1.622,-1.54871 -4.2,-1.629819 -5.925,-0.24619 z M 88,83.843299 88,20.864328 c 0,-3.946682 -3.364,-7.156701 -7.5,-7.156701 l -61,0 c -4.136,0 -7.5,3.210019 -7.5,7.156701 l 0,34.85354 0,28.125431 C 12,87.789981 15.364,91 19.5,91 l 61,0 C 84.636,91 88,87.789981 88,83.843299 Z M 80.5,18.478761 c 1.379,0 2.5,1.070643 2.5,2.385567 l 0,62.978971 c 0,1.315879 -1.121,2.385567 -2.5,2.385567 l -61,0 c -1.378,0 -2.5,-1.069688 -2.5,-2.385567 l 0,-62.978971 c 0,-1.314924 1.122,-2.385567 2.5,-2.385567 z"
     id="path4"
     inkscape:connector-curvature="0"
     sodipodi:nodetypes="cssscscscscscscsccscscscscscsccscsccccccccccccccccssssscsssssssssssss"
     style="fill:#73111a;fill-opacity:1"
     inkscape:export-filename="/home/paul/developing/workspace/RedPitaya/Paul/web-apps/m-dds-seq/info/icon.png"
     inkscape:export-xdpi="233.28947"
     inkscape:export-ydpi="233.28947" /><text
     x="0"
     y="115"
     fill="#000000"
     font-size="5px"
     font-weight="bold"
     font-family="'Helvetica Neue', Helvetica, Arial-Unicode, Arial, Sans-serif"
     id="text6">Created by James Christopher</text>
<text
     x="0"
     y="120"
     fill="#000000"
     font-size="5px"
     font-weight="bold"
     font-family="'Helvetica Neue', Helvetica, Arial-Unicode, Arial, Sans-serif"
     id="text8">from the Noun Project</text>
</svg>